<?xml version="1.0" encoding="UTF-8" standalone="no"?>
<svg
   viewBox="0 0 16 10"
   width="16"
   height="10"
   class=""
   version="1.1"
   id="svg4"
   sodipodi:docname="double-check.svg"
   inkscape:version="1.1 (c4e8f9e, 2021-05-24)"
   xmlns:inkscape="http://www.inkscape.org/namespaces/inkscape"
   xmlns:sodipodi="http://sodipodi.sourceforge.net/DTD/sodipodi-0.dtd"
   xmlns="http://www.w3.org/2000/svg"
   xmlns:svg="http://www.w3.org/2000/svg">
  <defs
     id="defs8" />
  <sodipodi:namedview
     id="namedview6"
     pagecolor="#ffffff"
     bordercolor="#666666"
     borderopacity="1.0"
     inkscape:pageshadow="2"
     inkscape:pageopacity="0.0"
     inkscape:pagecheckerboard="0"
     showgrid="false"
     height="14px"
     inkscape:zoom="35.025356"
     inkscape:cx="7.8229041"
     inkscape:cy="8.1369623"
     inkscape:window-width="1920"
     inkscape:window-height="1007"
     inkscape:window-x="0"
     inkscape:window-y="0"
     inkscape:window-maximized="1"
     inkscape:current-layer="svg4" />
  <path
     fill="currentColor"
     d="m 15.009932,0.87961868 -0.478,-0.372 a 0.365,0.365 0 0 0 -0.51,0.063 L 8.6659323,7.4426187 a 0.32,0.32 0 0 1 -0.484,0.033 l -0.358,-0.325 a 0.319,0.319 0 0 0 -0.484,0.032 l -0.378,0.483 a 0.418,0.418 0 0 0 0.036,0.541 l 1.32,1.266 c 0.143,0.1399995 0.361,0.1249995 0.484,-0.033 l 6.2719997,-8.048 a 0.366,0.366 0 0 0 -0.064,-0.51200002 z m -4.1,0 -0.478,-0.372 a 0.365,0.365 0 0 0 -0.5099997,0.063 l -5.356,6.87200002 a 0.32,0.32 0 0 1 -0.484,0.033 l -2.191,-2.143 a 0.366,0.366 0 0 0 -0.515,0.006 l -0.42300003,0.433 a 0.364,0.364 0 0 0 0.006,0.514 l 3.25800003,3.185 c 0.143,0.1399995 0.361,0.1249995 0.484,-0.033 l 6.2719997,-8.048 a 0.365,0.365 0 0 0 -0.063,-0.51000002 z"
     id="path2"
     style="fill:#ff2a2a" />
</svg>
