<?xml version="1.0" encoding="UTF-8" standalone="no"?>
<svg
   height="24px"
   viewBox="0 0 24 24"
   width="24px"
   fill="#8696a0"
   version="1.1"
   id="svg944"
   sodipodi:docname="attach_file_white_24dp.svg"
   inkscape:version="1.1 (c4e8f9e, 2021-05-24)"
   xmlns:inkscape="http://www.inkscape.org/namespaces/inkscape"
   xmlns:sodipodi="http://sodipodi.sourceforge.net/DTD/sodipodi-0.dtd"
   xmlns="http://www.w3.org/2000/svg"
   xmlns:svg="http://www.w3.org/2000/svg">
  <defs
     id="defs948" />
  <sodipodi:namedview
     id="namedview946"
     pagecolor="#ffffff"
     bordercolor="#666666"
     borderopacity="1.0"
     inkscape:pageshadow="2"
     inkscape:pageopacity="0.0"
     inkscape:pagecheckerboard="0"
     showgrid="false"
     inkscape:zoom="14.875"
     inkscape:cx="8.3361344"
     inkscape:cy="17.546218"
     inkscape:window-width="1920"
     inkscape:window-height="1007"
     inkscape:window-x="0"
     inkscape:window-y="0"
     inkscape:window-maximized="1"
     inkscape:current-layer="svg944" />
  <path
     d="M0 0h24v24H0V0z"
     fill="none"
     id="path940" />
  <path
     d="m 10.859555,4.821827 8.131729,8.131728 c 1.562706,1.562705 1.562705,4.094148 0,5.656855 -1.562708,1.562704 -4.094149,1.562705 -5.656854,-1e-6 L 4.4955945,9.7715747 c -0.9758072,-0.975808 -0.9758076,-2.5597267 0,-3.5355342 0.975807,-0.9758073 2.5597264,-0.9758072 3.5355347,-6e-7 l 7.4246198,7.4246211 c 0.388905,0.388914 0.38891,1.025305 10e-7,1.414214 -0.388913,0.388904 -1.025305,0.38891 -1.414214,0 L 7.3240215,8.3573609 6.2633614,9.4180208 12.980876,16.135535 c 0.975807,0.975808 2.559725,0.975808 3.535534,2e-6 0.975808,-0.975808 0.975807,-2.559728 1e-6,-3.535535 L 9.0917885,5.1753803 c -1.5627055,-1.5627064 -4.0941478,-1.5627063 -5.6568541,0 -1.562706,1.5627061 -1.5627059,4.0941485 10e-8,5.6568537 L 12.27377,19.67107 c 2.149604,2.149604 5.628569,2.149604 7.778173,-2e-6 2.149606,-2.149603 2.149605,-5.62857 10e-7,-7.778174 L 11.920215,3.7611667 Z"
     id="path942" />
</svg>
